<svg xmlns="http://www.w3.org/2000/svg" viewBox="58 220 269 336" preserveAspectRatio="xMidYMid slice"><defs><linearGradient id="f" x1="0" y1="0" x2="0" y2="1"><stop offset="0" stop-color="#4a4a4a"/><stop offset="0.3" stop-color="#fff"/><stop offset="0.55" stop-color="#fff"/><stop offset="0.85" stop-color="#3c3c3c"/><stop offset="1" stop-color="#2a2a2a"/></linearGradient><mask id="m" maskUnits="userSpaceOnUse" x="58" y="220" width="269" height="336"><rect x="58" y="220" width="269" height="336" fill="url(#f)"/></mask></defs><g mask="url(#m)" fill="#fff" stroke="#fff" stroke-linejoin="round"><path d="M325.7 265.2 L329.0 264.0 L333.3 264.1 L334.9 262.6 L346.6 269.0 L340.4 281.2 L339.8 286.4 L337.6 293.1 L329.2 306.2 L322.8 303.4 L321.7 305.2 L319.5 304.2 L308.6 292.9 L302.2 283.6 L297.1 278.1 L307.6 270.9 L318.2 259.8 L323.9 258.8Z" fill-opacity="0.26" stroke-opacity="0.42" stroke-width="0.8"/><path d="M405.5 86.3 L373.3 129.8 L367.6 138.7 L366.1 137.4 L365.5 135.4 L368.3 130.7 L356.8 110.2 L351.4 115.5 L350.5 114.8 L348.9 116.8 L345.3 114.0 L342.1 102.4 L343.2 99.3 L342.0 96.5 L331.2 94.6 L324.5 86.7 L323.1 87.0 L340.1 64.2 L355.0 50.6 L369.9 61.8 L374.9 62.5 L387.1 72.3 L396.0 75.8Z" fill-opacity="0.26" stroke-opacity="0.42" stroke-width="0.8"/><path d="M140.7 130.5 L159.1 106.7 L178.9 121.9 L160.8 145.4Z" fill-opacity="0.18" stroke-opacity="0.42" stroke-width="0.8"/><path d="M104.3 103.9 L108.6 106.1 L139.5 129.6 L125.2 146.9 L122.5 149.1 L121.2 148.1 L119.2 150.8 L120.2 152.9 L119.2 155.5 L121.1 160.5 L120.6 162.1 L118.7 165.1 L116.1 167.0 L114.8 169.6 L108.9 171.3 L109.6 173.3 L107.8 175.2 L107.3 177.2 L108.1 178.5 L106.7 180.0 L102.0 177.5 L100.7 174.4 L97.2 170.9 L96.1 168.0 L95.7 165.2 L97.7 163.8 L101.5 163.0 L103.8 159.2 L101.2 162.4 L98.1 162.3 L97.7 159.3 L96.4 157.4 L95.5 159.4 L92.7 154.6 L93.4 154.0 L90.3 147.7 L95.0 142.6 L97.5 140.6 L98.6 141.5 L100.5 139.1 L98.2 137.5 L93.9 140.4 L91.4 137.1 L92.6 136.1 L90.3 134.5 L89.8 135.1 L88.6 133.5 L90.4 130.3 L98.8 130.3 L99.6 129.3 L96.7 125.9 L99.9 121.7 L96.6 122.1 L94.6 124.5 L89.0 119.2 L89.7 118.2 L88.4 118.6 L87.1 117.5 L85.4 112.9 L76.3 103.9 L86.9 90.2Z" fill-opacity="0.26" stroke-opacity="0.42" stroke-width="0.8"/><path d="M146.4 219.4 L165.1 240.4 L147.3 254.1 L138.6 258.3 L134.8 261.6 L135.7 262.8 L134.2 263.1 L117.9 255.8 L112.9 252.7 L113.4 252.2 L111.2 250.4 L113.2 246.5 L114.0 245.3 L115.3 245.9 L119.5 244.4 L124.9 235.5 L129.7 231.3 L129.2 230.7 L133.5 227.8 L132.9 227.1 L134.3 221.4 L137.4 220.5 L138.1 218.0 L141.4 216.4 L141.8 214.4Z" fill-opacity="0.26" stroke-opacity="0.42" stroke-width="0.8"/><path d="M152.3 189.5 L140.7 161.2 L136.9 156.2 L131.9 147.2 L128.9 145.2 L128.5 142.8 L133.3 137.9 L139.5 129.6 L177.1 157.8Z" fill-opacity="0.26" stroke-opacity="0.42" stroke-width="0.8"/><path d="M130.1 434.3 L131.8 424.2 L128.1 419.0 L113.1 409.4 L115.2 406.6 L116.1 403.6 L115.9 395.2 L115.0 395.0 L115.0 393.4 L115.9 391.0 L118.4 389.2 L122.5 388.6 L132.6 391.6 L134.1 390.7 L141.3 395.8 L142.1 395.2 L146.1 395.8 L142.9 415.2 L145.7 415.7 L143.0 431.4Z" fill-opacity="0.18" stroke-opacity="0.42" stroke-width="0.8"/><path d="M240.0 185.9 L257.7 188.6 L254.0 196.3 L255.1 201.4 L259.5 208.5 L259.1 218.7 L256.7 221.2 L223.8 228.6 L215.0 234.1 L218.9 210.6 L216.5 210.2 L214.9 207.5 L220.4 201.5 L221.3 201.6 L222.9 198.2 L222.8 183.6Z" fill-opacity="0.26" stroke-opacity="0.42" stroke-width="0.8"/><path d="M343.0 101.1 L342.1 102.4 L345.3 114.0 L348.9 116.8 L350.5 114.8 L351.4 115.5 L356.8 110.2 L368.3 130.7 L365.5 135.4 L366.1 137.4 L375.5 144.5 L377.3 146.8 L378.3 153.5 L376.7 158.4 L377.6 160.2 L373.9 166.7 L374.5 173.0 L375.9 173.4 L378.2 171.3 L380.1 170.8 L381.6 173.2 L391.3 174.6 L394.5 171.2 L391.2 169.3 L393.4 165.0 L401.8 171.2 L403.4 174.4 L403.4 178.4 L400.8 182.0 L402.0 183.2 L399.8 185.9 L401.4 187.5 L399.6 188.7 L396.0 188.6 L398.8 182.8 L398.1 180.3 L394.7 177.5 L392.5 177.6 L389.3 179.4 L385.4 178.7 L382.6 179.2 L380.7 182.0 L381.2 184.6 L376.9 186.9 L368.9 183.9 L367.5 181.0 L365.9 180.3 L363.8 180.8 L361.6 182.6 L356.2 183.6 L350.3 181.7 L351.0 177.4 L356.6 180.0 L364.9 175.8 L370.1 163.1 L371.1 155.5 L370.3 152.0 L366.0 146.6 L360.5 145.8 L355.6 142.2 L357.0 139.5 L356.0 135.9 L356.9 134.8 L359.1 136.4 L360.3 135.7 L361.9 132.0 L361.5 129.8 L357.8 123.8 L354.3 122.4 L343.2 130.0 L340.0 126.5 L329.1 135.5 L324.2 132.7 L323.7 131.9 L328.0 120.3 L326.6 119.4 L324.5 115.6 L334.0 107.0 L325.2 105.9 L319.7 102.7 L315.6 101.5 L316.3 100.5 L312.7 101.1 L323.1 87.0 L324.5 86.7 L331.2 94.6 L342.0 96.5 L343.2 99.3Z" fill-opacity="0.26" stroke-opacity="0.42" stroke-width="0.8"/><path d="M431.7 19.6 L432.7 20.4 L439.3 11.5 L441.3 14.6 L438.8 22.4 L441.1 23.6 L445.9 23.5 L446.8 24.9 L446.9 27.2 L448.6 28.7 L439.3 38.7 L433.9 33.7 L424.5 42.8 L431.1 52.6 L431.8 52.0 L436.0 56.4 L435.9 57.6 L409.9 81.2 L405.5 86.3 L396.0 75.8 L387.1 72.3 L374.9 62.5 L369.9 61.8 L355.0 50.6 L397.9 11.5 L406.4 0.0Z" fill-opacity="0.26" stroke-opacity="0.42" stroke-width="0.8"/><path d="M136.6 155.7 L140.7 161.2 L150.1 184.2 L133.6 205.2 L134.2 205.9 L127.4 209.2 L125.0 200.5 L123.1 201.7 L118.7 196.9 L118.2 200.7 L115.5 198.9 L113.9 195.0 L115.4 192.3 L114.7 190.5 L114.1 190.2 L111.9 192.5 L110.4 192.2 L110.6 189.0 L107.6 186.8 L107.4 183.8 L109.1 183.0 L106.7 180.0 L108.1 178.5 L107.4 176.4 L109.6 173.3 L108.9 171.3 L114.8 169.6 L116.1 167.0 L119.5 164.1 L121.1 160.5 L119.2 156.2 L120.2 152.9 L119.2 150.8 L121.2 148.1 L122.5 149.1 L125.2 146.9 L128.5 142.8 L128.9 145.2 L131.9 147.2Z" fill-opacity="0.26" stroke-opacity="0.42" stroke-width="0.8"/><path d="M213.0 165.5 L210.4 180.8 L199.3 172.7 L186.7 165.0 L160.8 145.4 L178.9 121.9 L215.7 149.2Z" fill-opacity="0.26" stroke-opacity="0.42" stroke-width="0.8"/><path d="M87.1 117.5 L88.4 118.6 L89.7 118.2 L89.0 119.2 L94.6 124.5 L96.6 122.1 L99.9 121.7 L96.7 125.9 L99.6 129.3 L98.8 130.3 L90.4 130.3 L88.6 133.5 L89.8 135.1 L90.3 134.5 L92.6 136.1 L91.4 137.1 L93.9 140.4 L98.2 137.5 L100.5 139.1 L98.6 141.5 L97.5 140.6 L95.0 142.6 L90.3 147.7 L93.4 154.0 L92.7 154.6 L95.5 159.4 L96.4 157.4 L97.7 159.3 L98.1 162.3 L101.2 162.4 L103.8 159.2 L101.5 163.0 L97.7 163.8 L95.7 165.2 L96.7 170.1 L100.7 174.4 L102.0 177.5 L105.6 178.9 L109.1 183.0 L107.4 183.8 L107.6 186.8 L110.6 189.0 L110.4 192.2 L111.9 192.5 L114.1 190.2 L115.5 191.0 L113.9 195.0 L115.5 198.9 L118.2 200.7 L118.7 196.9 L123.1 201.7 L125.0 200.5 L127.4 209.2 L124.5 210.1 L123.5 211.3 L125.8 213.7 L125.6 217.2 L126.6 220.4 L128.2 221.2 L132.8 220.4 L134.3 221.4 L132.9 227.1 L133.5 227.8 L129.2 230.7 L129.7 231.3 L124.9 235.5 L119.5 244.4 L115.3 245.9 L114.0 245.3 L111.2 250.4 L110.4 249.7 L112.2 244.9 L112.1 242.8 L116.4 241.4 L117.8 239.6 L117.6 236.9 L116.1 234.2 L119.2 224.6 L117.5 223.8 L114.5 218.7 L117.8 216.8 L114.5 211.0 L111.4 212.8 L107.1 201.0 L97.1 191.5 L95.7 187.3 L95.2 179.6 L81.4 170.9 L75.2 168.6 L79.1 166.0 L78.0 164.4 L80.2 163.1 L79.0 162.7 L80.5 161.8 L77.3 156.6 L79.7 155.0 L81.1 157.5 L84.2 159.7 L87.2 157.6 L83.2 151.7 L84.9 150.8 L85.1 146.7 L82.3 145.3 L85.2 142.2 L78.1 134.6 L74.1 134.7 L73.1 135.8 L72.3 134.9 L76.0 132.3 L79.3 131.2 L79.5 129.4 L78.0 127.7 L76.1 122.2 L83.3 117.6 L80.4 113.1 L72.4 108.8 L76.3 103.9 L85.4 112.9Z" fill-opacity="0.26" stroke-opacity="0.42" stroke-width="0.8"/><path d="M220.8 398.7 L221.8 417.7 L233.0 449.7 L232.5 457.8 L230.2 471.2 L228.2 477.7 L221.8 490.4 L213.0 487.5 L197.9 485.0 L203.0 448.6 L202.1 448.4 L203.1 442.4 L202.4 435.3 L204.9 415.9 L209.2 399.5 L207.8 399.4 L212.2 373.2 L216.5 355.4 L219.3 355.6 L228.1 360.5 L224.6 366.8 L222.2 374.6 L220.7 389.4Z" fill-opacity="0.26" stroke-opacity="0.42" stroke-width="0.8"/><path d="M453.4 28.4 L455.6 29.3 L456.3 30.7 L455.9 34.2 L456.6 35.3 L461.2 36.9 L464.1 35.7 L470.5 36.2 L476.1 41.8 L483.1 38.7 L485.3 42.1 L480.8 40.7 L476.1 44.2 L475.5 49.2 L457.3 67.8 L456.4 70.3 L457.1 71.0 L449.9 77.4 L433.8 59.7 L435.8 57.8 L436.0 56.4 L431.8 52.0 L431.1 52.6 L424.5 42.8 L433.9 33.7 L439.3 38.7 L448.6 28.7 L449.8 29.6Z" fill-opacity="0.26" stroke-opacity="0.42" stroke-width="0.8"/><path d="M431.7 147.6 L418.4 137.5 L425.0 131.7 L426.0 128.0 L437.7 137.3 L435.1 142.7 L432.0 143.3 L431.1 145.0 L432.2 146.8Z" fill-opacity="0.03" stroke-opacity="0.42" stroke-width="0.8"/><path d="M482.2 55.9 L483.0 57.2 L485.0 57.1 L482.5 60.0 L485.2 62.0 L485.5 63.3 L483.4 64.4 L483.2 63.9 L478.4 64.8 L477.3 58.6 L479.2 56.6Z" fill-opacity="0.03" stroke-opacity="0.42" stroke-width="0.8"/><path d="M485.4 56.0 L485.0 57.1 L483.0 57.2 L482.2 55.9 L481.2 55.8 L478.0 57.5 L477.3 58.6 L478.4 64.8 L483.2 63.9 L483.4 64.4 L485.5 63.3 L489.4 69.8 L489.5 72.9 L488.1 74.5 L487.9 76.6 L488.6 77.4 L487.9 78.7 L488.2 80.4 L492.8 82.2 L487.5 89.3 L482.2 93.0 L473.1 101.5 L460.2 88.4 L453.7 96.0 L442.8 84.5 L457.1 71.0 L456.4 70.3 L457.3 67.8 L475.5 49.2 L476.1 44.2 L480.8 40.7 L485.3 42.1 L485.9 46.0 L485.2 49.3Z" fill-opacity="0.26" stroke-opacity="0.42" stroke-width="0.8"/><path d="M494.7 84.1 L496.6 84.5 L497.2 86.0 L493.7 95.2 L494.3 100.5 L492.6 110.8 L488.3 116.5 L487.0 119.8 L484.9 121.4 L483.3 121.5 L480.3 111.5 L473.1 101.5 L482.2 93.0 L487.5 89.3 L492.8 82.2Z" fill-opacity="0.12" stroke-opacity="0.42" stroke-width="0.8"/><path d="M442.8 84.5 L453.7 96.0 L449.8 103.1 L446.8 106.3 L433.6 115.8 L426.2 126.9 L425.0 131.7 L418.4 137.5 L385.1 114.0 L407.7 83.5 L426.7 66.1Z" fill-opacity="0.26" stroke-opacity="0.42" stroke-width="0.8"/><path d="M473.1 101.5 L463.8 116.4 L458.4 132.2 L448.4 124.3 L438.1 112.6 L446.8 106.3 L449.8 103.1 L452.6 97.2 L460.2 88.4Z" fill-opacity="0.18" stroke-opacity="0.42" stroke-width="0.8"/><path d="M458.4 132.2 L456.5 146.8 L451.5 149.4 L444.1 155.2 L442.6 153.8 L437.9 152.1 L431.7 147.6 L432.2 146.8 L431.1 145.0 L432.0 143.3 L435.1 142.7 L437.7 137.3 L426.0 128.0 L433.6 115.8 L438.1 112.6 L448.4 124.3Z" fill-opacity="0.18" stroke-opacity="0.42" stroke-width="0.8"/><path d="M481.9 115.9 L483.3 121.5 L479.1 122.8 L475.8 122.5 L474.0 123.8 L473.4 128.6 L467.7 135.8 L460.7 125.9 L463.8 116.4 L473.1 101.5 L480.3 111.5Z" fill-opacity="0.12" stroke-opacity="0.42" stroke-width="0.8"/><path d="M456.5 146.8 L458.4 132.2 L460.7 125.9 L467.7 135.8 L459.6 143.7 L459.0 146.2Z" fill-opacity="0.03" stroke-opacity="0.42" stroke-width="0.8"/><path d="M418.4 137.5 L437.9 152.1 L442.6 153.8 L444.1 155.2 L427.7 161.5 L416.8 171.6 L416.5 161.9 L414.9 154.4 L415.0 144.3 L416.9 138.8Z" fill-opacity="0.12" stroke-opacity="0.42" stroke-width="0.8"/><path d="M409.4 131.8 L386.0 162.8 L377.1 161.4 L377.6 160.2 L376.7 158.4 L378.3 153.5 L377.3 146.8 L367.7 138.5 L385.1 114.0Z" fill-opacity="0.18" stroke-opacity="0.42" stroke-width="0.8"/><path d="M395.5 149.6 L409.4 131.8 L418.4 137.5 L416.9 138.8 L415.0 144.3 L414.9 154.4 L416.5 161.9 L416.3 168.9 L397.1 152.9Z" fill-opacity="0.12" stroke-opacity="0.42" stroke-width="0.8"/><path d="M409.8 163.2 L416.3 168.9 L416.8 171.6 L401.4 187.5 L399.8 185.9 L402.0 183.2 L400.8 182.0 L403.4 178.4 L403.7 176.0 L402.6 172.1 L395.0 166.5 L392.1 162.8 L386.0 162.8 L395.5 149.6 L397.1 152.9Z" fill-opacity="0.12" stroke-opacity="0.42" stroke-width="0.8"/><path d="M376.5 161.1 L381.6 162.4 L392.1 162.8 L393.4 165.0 L391.2 169.3 L394.5 171.2 L392.2 174.0 L390.5 174.8 L381.5 173.2 L380.1 170.8 L378.2 171.3 L375.9 173.4 L374.7 173.3 L373.7 167.9Z" fill-opacity="0.03" stroke-opacity="0.42" stroke-width="0.8"/><path d="M455.2 167.6 L460.5 168.9 L469.3 178.8 L436.5 211.0 L407.8 181.1 L427.7 161.5 L443.4 155.9 L451.5 149.4 L456.5 146.8 L459.0 146.2 L458.4 151.2 L459.5 155.3 L452.6 161.4 L453.8 165.8Z" fill-opacity="0.26" stroke-opacity="0.42" stroke-width="0.8"/><path d="M351.0 177.4 L351.4 171.9 L361.0 158.5 L365.6 146.3 L370.3 152.0 L371.1 155.5 L370.1 163.1 L368.2 168.8 L365.8 172.4 L365.8 174.3 L364.9 175.8 L356.6 180.0Z" fill-opacity="0.12" stroke-opacity="0.42" stroke-width="0.8"/><path d="M365.6 146.3 L361.0 158.5 L352.1 170.3 L350.3 181.7 L346.1 187.0 L317.1 165.3 L332.9 143.7 L321.6 135.4 L323.7 131.9 L329.1 135.5 L340.0 126.5 L343.2 130.0 L353.2 122.9 L356.8 122.9 L362.0 131.3 L360.0 136.1 L359.1 136.4 L356.9 134.8 L356.0 135.9 L357.0 139.5 L355.6 142.2 L360.5 145.8Z" fill-opacity="0.26" stroke-opacity="0.42" stroke-width="0.8"/><path d="M326.0 106.1 L334.0 107.0 L324.5 115.6 L326.6 119.4 L328.0 120.3 L323.3 133.0 L321.6 135.4 L332.9 143.7 L317.1 165.3 L301.4 153.3 L301.7 144.9 L300.7 142.6 L285.6 132.6 L305.1 107.8 L310.2 104.5 L312.7 101.1 L316.3 100.5 L315.6 101.5 L319.0 102.4Z" fill-opacity="0.26" stroke-opacity="0.42" stroke-width="0.8"/><path d="M297.1 168.2 L289.4 162.5 L286.1 161.3 L295.5 148.8 L281.2 138.0 L285.8 132.2 L300.7 142.6 L301.7 144.9 L301.5 153.4 L298.0 160.9 L297.9 167.1Z" fill-opacity="0.12" stroke-opacity="0.42" stroke-width="0.8"/><path d="M317.1 165.3 L346.1 187.0 L333.2 202.2 L299.7 212.5 L298.7 209.0 L296.0 206.5 L293.4 199.5 L294.3 194.5 L293.1 187.8 L297.3 175.9 L296.2 169.6 L297.9 167.1 L298.0 160.9 L301.5 153.4Z" fill-opacity="0.26" stroke-opacity="0.42" stroke-width="0.8"/><path d="M299.7 212.5 L285.0 222.9 L281.4 223.3 L277.9 220.7 L293.6 200.1 L296.0 206.5 L299.4 210.2Z" fill-opacity="0.07" stroke-opacity="0.42" stroke-width="0.8"/><path d="M293.2 187.2 L294.3 194.5 L293.6 200.1 L278.3 220.3 L277.9 220.7 L273.7 217.1 L269.7 216.5 L274.5 209.3 L269.1 205.3 L273.2 199.9 L286.9 183.4Z" fill-opacity="0.12" stroke-opacity="0.42" stroke-width="0.8"/><path d="M297.1 168.3 L296.2 170.1 L297.6 174.2 L297.3 175.9 L293.2 187.2 L286.9 183.4 L269.1 205.3 L274.5 209.3 L269.7 216.5 L256.7 221.5 L259.4 217.9 L259.7 209.4 L259.1 207.3 L255.1 201.4 L254.0 196.3 L259.2 187.2 L259.2 182.3 L262.0 184.2 L263.6 180.5 L266.2 177.2 L286.2 161.5 L289.4 162.5Z" fill-opacity="0.18" stroke-opacity="0.42" stroke-width="0.8"/><path d="M304.8 223.4 L288.1 245.4 L284.8 246.4 L282.6 244.6 L278.1 243.3 L272.4 244.0 L265.2 242.6 L264.6 241.4 L265.5 239.4 L267.2 238.7 L268.1 237.0 L270.5 237.0 L271.4 233.6 L270.9 231.6 L268.8 228.7 L267.8 230.1 L265.3 229.2 L262.1 231.8 L260.3 231.4 L259.2 230.4 L258.9 224.9 L257.1 224.2 L256.6 222.1 L256.7 221.5 L271.5 216.4 L273.7 217.1 L279.7 222.4 L283.1 223.5 L294.7 216.0Z" fill-opacity="0.18" stroke-opacity="0.42" stroke-width="0.8"/><path d="M397.1 179.0 L398.6 181.7 L398.7 184.0 L396.9 185.8 L396.0 188.6 L399.6 188.7 L407.8 181.1 L436.5 211.0 L409.2 235.4 L399.3 239.1 L390.6 240.9 L367.2 202.1 L378.3 197.0 L373.5 189.1 L381.2 184.6 L380.7 182.0 L382.6 179.2 L385.4 178.7 L389.3 179.4 L393.6 177.4Z" fill-opacity="0.26" stroke-opacity="0.42" stroke-width="0.8"/><path d="M324.0 258.8 L318.2 259.8 L307.6 270.9 L297.1 278.1 L295.4 274.8 L294.6 270.4 L287.3 264.6 L288.2 261.0 L283.8 256.7 L286.3 250.5 L284.8 246.4 L288.1 245.4 L304.8 223.4 L311.6 228.8 L318.2 238.1Z" fill-opacity="0.18" stroke-opacity="0.42" stroke-width="0.8"/><path d="M376.7 186.9 L373.5 189.1 L378.3 197.0 L367.2 202.0 L355.1 210.1 L347.6 212.8 L342.6 217.8 L339.7 219.4 L317.1 225.2 L311.7 229.5 L307.9 225.7 L294.7 216.0 L300.6 212.1 L333.2 202.2 L350.3 181.7 L356.2 183.6 L361.6 182.6 L363.8 180.8 L365.9 180.3 L367.5 181.0 L368.9 183.9Z" fill-opacity="0.26" stroke-opacity="0.42" stroke-width="0.8"/><path d="M378.7 220.9 L390.6 240.9 L377.0 245.6 L360.7 253.6 L357.3 256.1 L352.8 261.7 L343.5 247.9 L355.1 240.1 L340.7 218.9 L347.6 212.8 L355.1 210.1 L367.2 202.1Z" fill-opacity="0.26" stroke-opacity="0.42" stroke-width="0.8"/><path d="M352.8 261.7 L347.6 266.9 L346.6 269.0 L334.9 262.6 L333.3 264.1 L329.0 264.0 L325.8 265.6 L318.2 238.1 L311.7 229.5 L317.1 225.2 L340.7 218.9 L355.1 240.1 L343.5 247.9Z" fill-opacity="0.26" stroke-opacity="0.42" stroke-width="0.8"/><path d="M72.3 134.9 L73.1 135.8 L74.1 134.7 L78.1 134.6 L85.2 142.2 L82.3 145.3 L85.1 146.7 L84.9 150.8 L81.9 152.3 L74.4 147.8 L67.6 153.8 L62.3 148.0 L60.1 135.2 L56.8 128.9 L72.4 108.8 L80.4 113.1 L83.3 118.0 L76.1 122.2 L78.0 127.7 L79.5 129.4 L79.3 131.2 L76.0 132.3Z" fill-opacity="0.18" stroke-opacity="0.42" stroke-width="0.8"/><path d="M67.5 153.4 L74.4 147.8 L81.9 152.3 L83.3 151.8 L87.2 157.6 L84.2 159.7 L81.1 157.5 L79.7 155.0 L77.3 156.6 L80.5 161.8 L79.0 162.7 L80.2 163.1 L78.0 164.4 L79.1 166.0 L75.2 168.6 L81.4 170.9 L95.2 179.6 L96.0 189.2 L92.8 190.2 L87.2 198.2 L82.8 191.2 L78.5 187.6 L73.9 185.4 L69.7 180.8 L67.6 174.4 L67.5 170.5 L53.2 177.3 L46.6 186.6 L44.1 188.6 L34.7 180.8 L24.3 167.8 L56.8 128.9 L60.1 135.2 L62.3 148.0Z" fill-opacity="0.26" stroke-opacity="0.42" stroke-width="0.8"/><path d="M60.1 201.7 L58.4 204.6 L55.1 202.5 L53.2 200.7 L47.9 192.3 L44.1 188.6 L46.6 186.6 L53.2 177.3 L67.5 170.5 L67.6 174.4 L69.7 180.8 L73.9 185.4 L65.5 190.7Z" fill-opacity="0.12" stroke-opacity="0.42" stroke-width="0.8"/><path d="M71.4 204.2 L69.6 206.2 L68.8 205.0 L63.2 210.6 L58.4 204.6 L63.7 195.5 L65.5 190.7 L73.9 185.4 L78.5 187.6 L82.8 191.2Z" fill-opacity="0.07" stroke-opacity="0.42" stroke-width="0.8"/><path d="M81.4 205.5 L73.3 211.1 L69.0 215.3 L63.2 210.6 L68.8 205.0 L69.6 206.2 L82.8 191.2 L88.1 199.8 L83.6 202.5Z" fill-opacity="0.07" stroke-opacity="0.42" stroke-width="0.8"/><path d="M87.2 198.2 L90.9 192.3 L94.2 189.3 L96.0 189.2 L97.4 192.0 L101.4 195.7 L91.4 201.4 L88.1 199.8Z" fill-opacity="0.03" stroke-opacity="0.42" stroke-width="0.8"/><path d="M118.2 224.2 L111.2 228.4 L105.8 238.8 L99.4 228.2 L100.9 226.6 L97.6 220.9 L83.2 203.1 L88.1 199.8 L91.4 201.4 L101.4 195.7 L108.3 202.8 L111.4 212.8 L114.5 211.0 L117.8 216.8 L114.5 218.7Z" fill-opacity="0.18" stroke-opacity="0.42" stroke-width="0.8"/><path d="M87.2 208.5 L97.6 220.9 L100.9 226.6 L93.4 232.8 L89.1 230.8 L73.5 219.8 L69.0 215.3 L73.3 211.1 L81.4 205.5 L83.2 203.1Z" fill-opacity="0.12" stroke-opacity="0.42" stroke-width="0.8"/><path d="M117.5 238.9 L117.2 240.9 L112.1 242.8 L112.2 244.9 L110.4 249.7 L104.3 245.1 L98.0 237.0 L93.4 232.8 L99.4 228.2 L105.8 238.8 L111.2 228.4 L118.2 224.2 L119.2 224.6 L118.1 226.6 L118.5 228.6 L116.1 234.2 L117.6 236.9Z" fill-opacity="0.07" stroke-opacity="0.42" stroke-width="0.8"/><path d="M187.6 165.6 L186.8 203.2 L186.0 204.2 L167.0 201.3 L165.9 199.7 L166.1 197.3 L169.7 189.3 L169.7 183.6 L166.8 174.2 L165.6 172.5 L177.1 157.8Z" fill-opacity="0.18" stroke-opacity="0.42" stroke-width="0.8"/><path d="M165.9 199.1 L161.6 204.3 L152.2 189.7 L165.6 172.5 L169.0 180.7 L169.9 186.5 L169.7 189.3Z" fill-opacity="0.07" stroke-opacity="0.42" stroke-width="0.8"/><path d="M152.2 189.7 L161.7 204.4 L148.2 221.4 L141.8 214.4 L140.8 206.0 L136.8 201.3 L150.1 184.2Z" fill-opacity="0.12" stroke-opacity="0.42" stroke-width="0.8"/><path d="M174.2 214.1 L167.4 221.5 L155.3 212.4 L161.7 204.4Z" fill-opacity="0.03" stroke-opacity="0.42" stroke-width="0.8"/><path d="M167.4 221.5 L158.4 233.0 L148.2 221.4 L155.3 212.4Z" fill-opacity="0.03" stroke-opacity="0.42" stroke-width="0.8"/><path d="M181.1 219.4 L184.2 224.0 L185.8 230.4 L183.1 235.7 L174.9 238.6 L165.1 240.4 L158.4 233.0 L170.9 217.0 L171.6 217.6 L174.2 214.1Z" fill-opacity="0.12" stroke-opacity="0.42" stroke-width="0.8"/><path d="M210.5 180.9 L207.6 197.8 L199.4 197.9 L192.8 197.0 L188.6 194.5 L186.7 192.2 L187.6 165.6 L199.3 172.7Z" fill-opacity="0.12" stroke-opacity="0.42" stroke-width="0.8"/><path d="M186.9 202.6 L190.1 202.7 L191.5 204.6 L190.5 210.0 L192.3 213.0 L187.2 214.3 L181.1 219.4 L161.6 204.3 L165.8 199.2 L167.0 201.3 L169.3 202.0 L186.0 204.2Z" fill-opacity="0.07" stroke-opacity="0.42" stroke-width="0.8"/><path d="M201.1 236.8 L200.2 242.0 L197.2 242.1 L181.6 251.5 L181.9 236.1 L189.8 234.8Z" fill-opacity="0.07" stroke-opacity="0.42" stroke-width="0.8"/><path d="M181.5 237.6 L181.6 251.5 L197.2 242.1 L200.2 242.0 L195.1 272.8 L175.2 269.5 L175.7 266.3 L167.5 263.6 L156.2 247.0 L165.1 240.4 L174.9 238.6 L181.9 236.1Z" fill-opacity="0.18" stroke-opacity="0.42" stroke-width="0.8"/><path d="M175.2 269.5 L172.7 284.7 L141.8 279.8 L142.7 275.5 L135.4 276.6 L136.0 268.6 L134.2 263.1 L135.7 262.8 L134.8 261.6 L138.6 258.3 L147.3 254.1 L156.2 247.0 L167.5 263.6 L175.7 266.3Z" fill-opacity="0.18" stroke-opacity="0.42" stroke-width="0.8"/><path d="M195.1 272.8 L193.7 282.4 L184.6 286.7 L172.7 284.7 L175.2 269.5Z" fill-opacity="0.07" stroke-opacity="0.42" stroke-width="0.8"/><path d="M222.8 183.6 L222.9 198.2 L221.3 201.6 L207.6 197.8 L210.5 180.9Z" fill-opacity="0.07" stroke-opacity="0.42" stroke-width="0.8"/><path d="M240.4 182.7 L240.0 185.9 L229.6 184.0 L221.0 183.5 L218.7 182.3 L210.5 180.9 L215.7 149.2 L242.3 169.6Z" fill-opacity="0.18" stroke-opacity="0.42" stroke-width="0.8"/><path d="M259.2 182.3 L259.3 186.9 L257.4 189.0 L240.0 185.9 L242.3 169.6Z" fill-opacity="0.07" stroke-opacity="0.42" stroke-width="0.8"/><path d="M227.3 265.6 L223.0 266.4 L215.1 270.1 L214.9 272.1 L193.7 282.4 L197.7 257.4 L227.7 262.4Z" fill-opacity="0.12" stroke-opacity="0.42" stroke-width="0.8"/><path d="M256.7 221.5 L257.1 224.2 L258.9 224.9 L259.1 229.6 L254.7 235.4 L260.2 236.3 L257.5 251.8 L222.3 245.8 L225.3 228.3Z" fill-opacity="0.18" stroke-opacity="0.42" stroke-width="0.8"/><path d="M314.1 298.8 L319.5 304.2 L321.7 305.2 L322.8 303.4 L329.2 306.2 L326.7 309.0 L313.6 319.9 L306.6 322.0 L297.9 325.8 L285.4 327.4 L274.7 311.1 L270.0 314.5 L262.2 317.7 L255.6 321.9 L242.1 301.9 L237.2 296.3 L255.6 283.1 L266.5 298.9 L297.2 278.2Z" fill-opacity="0.26" stroke-opacity="0.42" stroke-width="0.8"/><path d="M257.4 338.9 L256.0 339.6 L248.2 326.9 L259.3 319.4 L270.0 314.5 L274.7 311.1 L285.4 327.4 L272.7 331.2Z" fill-opacity="0.42" stroke-opacity="0.95" stroke-width="1.5"/><path d="M222.3 245.8 L257.5 251.8 L254.6 269.0 L233.6 265.4 L227.3 265.6 L227.7 262.4 L197.7 257.4 L201.1 236.8 L209.7 237.3 L225.3 228.3Z" fill-opacity="0.18" stroke-opacity="0.42" stroke-width="0.8"/><path d="M269.8 230.2 L271.4 233.6 L270.5 237.0 L268.1 237.0 L267.2 238.7 L265.5 239.4 L264.6 241.4 L265.2 242.6 L272.4 244.0 L278.1 243.3 L282.6 244.6 L284.8 246.4 L286.2 249.7 L283.8 256.7 L288.2 261.0 L287.3 264.6 L291.2 267.6 L284.5 272.8 L280.8 273.3 L271.6 271.6 L269.9 272.9 L260.8 271.4 L261.1 269.8 L254.7 268.8 L260.2 236.3 L254.7 235.4 L259.1 229.6 L260.3 231.4 L262.1 231.8 L265.3 229.2 L267.8 230.1 L268.8 228.7Z" fill-opacity="0.18" stroke-opacity="0.42" stroke-width="0.8"/><path d="M295.4 273.4 L297.2 278.2 L266.5 298.9 L255.6 283.1 L252.6 282.5 L254.7 268.8 L261.1 269.8 L260.8 271.4 L266.8 272.4 L269.9 272.9 L271.6 271.6 L280.8 273.3 L284.5 272.8 L286.9 271.6 L291.2 267.6 L294.0 269.4Z" fill-opacity="0.18" stroke-opacity="0.42" stroke-width="0.8"/><path d="M222.0 281.8 L220.9 292.8 L211.6 291.3 L215.1 270.1 L223.9 266.2 L224.5 271.4 L223.2 279.4Z" fill-opacity="0.07" stroke-opacity="0.42" stroke-width="0.8"/><path d="M233.6 265.4 L254.6 269.0 L252.6 282.5 L255.6 283.1 L237.2 296.3 L229.3 286.5 L222.0 281.8 L223.2 279.4 L224.5 271.4 L223.9 266.2Z" fill-opacity="0.18" stroke-opacity="0.42" stroke-width="0.8"/><path d="M220.9 292.8 L222.0 281.8 L229.3 286.5 L236.8 295.3Z" fill-opacity="0.03" stroke-opacity="0.42" stroke-width="0.8"/><path d="M190.5 283.9 L192.7 288.1 L189.6 306.6 L160.7 301.7 L166.4 296.7 L168.5 296.9 L179.9 289.0Z" fill-opacity="0.12" stroke-opacity="0.42" stroke-width="0.8"/><path d="M162.3 301.9 L158.1 327.3 L157.0 327.5 L157.0 328.3 L142.5 325.9 L141.2 322.8 L138.8 321.7 L138.7 319.5 L139.5 318.3 L142.5 316.8 L157.2 304.0 L160.7 301.7Z" fill-opacity="0.12" stroke-opacity="0.42" stroke-width="0.8"/><path d="M173.3 329.2 L156.9 331.1 L157.0 327.5 L158.1 327.3 L159.8 316.9 L168.5 318.3Z" fill-opacity="0.03" stroke-opacity="0.42" stroke-width="0.8"/><path d="M189.6 306.6 L185.3 333.1 L174.3 331.2 L168.5 318.3 L159.8 316.9 L162.3 301.9Z" fill-opacity="0.12" stroke-opacity="0.42" stroke-width="0.8"/><path d="M188.1 315.6 L201.0 317.8 L198.1 335.0 L185.3 333.1Z" fill-opacity="0.07" stroke-opacity="0.42" stroke-width="0.8"/><path d="M207.2 318.8 L204.9 335.2 L198.1 335.0 L201.0 317.8Z" fill-opacity="0.03" stroke-opacity="0.42" stroke-width="0.8"/><path d="M207.3 318.0 L207.2 318.8 L188.1 315.6 L192.7 288.1 L190.5 283.9 L214.9 272.1Z" fill-opacity="0.18" stroke-opacity="0.42" stroke-width="0.8"/><path d="M224.1 323.3 L223.6 326.0 L219.5 323.9 L206.8 321.8 L211.6 291.3 L231.8 294.6 L236.4 295.5 L237.2 296.3 L227.3 303.4Z" fill-opacity="0.12" stroke-opacity="0.42" stroke-width="0.8"/><path d="M234.6 354.3 L229.5 343.4 L220.0 341.5 L225.3 315.7 L229.6 318.8 L234.0 313.2 L245.2 306.5 L255.6 321.9 L248.2 326.9 L256.0 339.6 L246.4 345.3Z" fill-opacity="0.42" stroke-opacity="0.95" stroke-width="1.5"/><path d="M223.6 326.0 L220.7 338.2 L204.9 335.2 L206.8 321.8 L219.5 323.9Z" fill-opacity="0.07" stroke-opacity="0.42" stroke-width="0.8"/><path d="M234.6 354.3 L228.1 360.5 L219.3 355.6 L216.6 355.1 L214.4 364.9 L212.8 365.0 L211.2 363.4 L207.9 362.2 L201.3 360.9 L204.9 335.2 L220.7 338.2 L220.0 341.5 L229.5 343.4Z" fill-opacity="0.18" stroke-opacity="0.42" stroke-width="0.8"/><path d="M207.6 197.8 L220.4 201.5 L214.9 207.5 L216.5 210.2 L218.9 210.6 L215.0 234.1 L209.7 237.3 L204.0 237.2 L189.8 234.8 L183.1 235.7 L185.8 230.4 L184.2 224.0 L181.1 219.4 L187.2 214.3 L192.3 213.0 L190.5 210.0 L191.5 204.6 L190.1 202.7 L186.9 202.6 L186.7 193.0 L192.8 197.0 L199.4 197.9Z" fill-opacity="0.18" stroke-opacity="0.42" stroke-width="0.8"/><path d="M210.7 382.7 L208.7 394.1 L191.2 391.2 L193.1 379.8Z" fill-opacity="0.07" stroke-opacity="0.42" stroke-width="0.8"/><path d="M214.4 364.9 L210.7 382.7 L193.1 379.8 L194.1 373.7 L191.7 373.3 L193.6 361.9 L203.5 361.1 L211.2 363.4 L212.8 365.0Z" fill-opacity="0.12" stroke-opacity="0.42" stroke-width="0.8"/><path d="M193.6 361.9 L192.4 369.3 L187.6 368.5 L188.2 364.9 L187.0 364.7 L187.6 361.0Z" fill-opacity="0.03" stroke-opacity="0.42" stroke-width="0.8"/><path d="M192.4 369.3 L191.7 373.3 L180.8 371.6 L180.1 372.9 L176.3 372.0 L176.6 368.8 L179.0 369.2 L180.6 359.8 L187.6 361.0 L187.0 364.7 L188.2 364.9 L187.6 368.5Z" fill-opacity="0.03" stroke-opacity="0.42" stroke-width="0.8"/><path d="M180.8 371.6 L194.1 373.7 L191.2 391.2 L175.8 388.7 L178.5 372.8 L180.1 372.9Z" fill-opacity="0.07" stroke-opacity="0.42" stroke-width="0.8"/><path d="M157.0 328.3 L156.9 331.1 L168.5 330.3 L166.9 341.5 L153.9 341.2 L145.3 331.2 L145.4 329.2 L143.6 329.0 L142.5 325.9Z" fill-opacity="0.07" stroke-opacity="0.42" stroke-width="0.8"/><path d="M185.3 333.1 L183.8 341.9 L166.9 341.5 L168.5 330.3 L167.5 330.1 L173.3 329.2 L174.3 331.2Z" fill-opacity="0.42" stroke-opacity="0.95" stroke-width="1.5"/><path d="M183.8 342.0 L182.2 351.5 L159.4 347.5 L153.9 341.2Z" fill-opacity="0.07" stroke-opacity="0.42" stroke-width="0.8"/><path d="M157.9 347.2 L182.2 351.5 L179.0 369.2 L176.6 368.8 L176.3 370.8 L153.6 367.1 L154.7 359.6 L153.6 355.8 L148.2 347.5Z" fill-opacity="0.42" stroke-opacity="0.95" stroke-width="1.5"/><path d="M175.9 387.8 L175.8 388.7 L154.1 385.1 L155.2 378.5 L148.6 377.3 L153.6 367.1 L176.3 370.8 L176.4 372.2 L178.5 372.8Z" fill-opacity="0.12" stroke-opacity="0.42" stroke-width="0.8"/><path d="M154.1 385.1 L152.7 386.7 L146.0 385.6 L141.7 382.9 L148.6 377.3 L155.2 378.5Z" fill-opacity="0.03" stroke-opacity="0.42" stroke-width="0.8"/><path d="M154.1 385.1 L175.8 388.7 L173.8 400.2 L142.1 395.2 L141.3 395.8 L134.1 390.7 L136.0 389.7 L141.7 382.9 L146.0 385.6 L152.7 386.7Z" fill-opacity="0.12" stroke-opacity="0.42" stroke-width="0.8"/><path d="M171.7 415.1 L161.7 413.4 L160.9 418.3 L142.9 415.2 L146.1 395.8 L173.8 400.2Z" fill-opacity="0.12" stroke-opacity="0.42" stroke-width="0.8"/><path d="M186.4 390.4 L184.4 402.5 L173.8 400.2 L175.8 388.7Z" fill-opacity="0.42" stroke-opacity="0.95" stroke-width="1.5"/><path d="M191.2 391.2 L196.1 392.1 L193.7 405.8 L184.4 402.5 L186.4 390.4Z" fill-opacity="0.03" stroke-opacity="0.42" stroke-width="0.8"/><path d="M208.7 394.1 L207.8 399.4 L209.2 399.5 L206.8 409.1 L200.8 408.2 L193.7 405.8 L196.1 392.1Z" fill-opacity="0.07" stroke-opacity="0.42" stroke-width="0.8"/><path d="M193.7 405.8 L198.4 407.4 L195.1 426.6 L187.9 425.5 L191.4 404.9Z" fill-opacity="0.03" stroke-opacity="0.42" stroke-width="0.8"/><path d="M189.1 418.1 L171.7 415.1 L173.8 400.2 L182.2 401.7 L191.4 404.9Z" fill-opacity="0.07" stroke-opacity="0.42" stroke-width="0.8"/><path d="M187.9 425.5 L195.1 426.6 L194.3 431.4 L182.3 429.4 L183.1 424.6Z" fill-opacity="0.03" stroke-opacity="0.42" stroke-width="0.8"/><path d="M182.3 429.4 L189.5 430.6 L187.0 445.7 L167.1 442.5 L169.6 427.3Z" fill-opacity="0.07" stroke-opacity="0.42" stroke-width="0.8"/><path d="M194.3 431.4 L202.6 432.9 L203.1 442.4 L202.1 448.4 L187.0 445.7 L189.5 430.6Z" fill-opacity="0.07" stroke-opacity="0.42" stroke-width="0.8"/><path d="M131.8 424.2 L130.1 434.3 L140.0 432.2 L137.2 452.8 L133.1 474.3 L134.2 478.9 L138.3 482.4 L132.3 486.0 L127.4 490.6 L110.4 485.0 L104.7 480.7 L85.4 492.0 L82.4 490.6 L75.5 489.6 L83.3 478.7 L85.0 471.1 L76.5 453.9 L81.5 449.0 L95.9 421.4 L103.7 425.3 L105.3 419.2 L111.6 409.0 L128.1 419.0Z" fill-opacity="0.26" stroke-opacity="0.42" stroke-width="0.8"/><path d="M34.8 523.5 L43.8 521.3 L53.5 514.8 L55.5 511.9 L58.8 503.1 L62.1 497.9 L67.3 493.7 L75.5 489.6 L82.4 490.6 L85.4 492.0 L104.7 480.7 L110.4 485.0 L127.4 490.6 L129.5 492.4 L132.3 519.5 L123.2 529.6 L105.5 542.0 L98.5 533.8 L98.9 523.8 L92.8 525.1 L70.8 521.6 L67.3 523.6 L66.4 525.8 L65.6 525.8 L61.0 531.2 L58.3 530.4 L51.4 525.9 L48.8 523.0 L43.0 524.1Z" fill-opacity="0.26" stroke-opacity="0.42" stroke-width="0.8"/><path d="M53.5 444.2 L57.0 450.5 L58.2 455.4 L48.1 469.8 L41.1 464.8 L42.6 462.7 L45.9 460.7 L46.5 457.3 L44.5 455.8 L50.9 448.4 L49.9 446.3 L51.4 443.5 L50.5 439.2 L51.3 438.4 L51.9 441.7Z" fill-opacity="0.07" stroke-opacity="0.42" stroke-width="0.8"/><path d="M76.5 453.9 L68.4 463.9 L65.3 466.4 L61.8 467.6 L56.7 449.9 L62.3 448.9 L65.4 446.1 L67.6 448.5 L71.4 447.8Z" fill-opacity="0.07" stroke-opacity="0.42" stroke-width="0.8"/><path d="M84.3 417.7 L54.1 445.2 L51.9 441.7 L51.3 438.4 L50.5 439.2 L49.9 432.6 L55.1 423.5 L54.7 421.6 L55.7 418.7 L55.1 415.1 L58.5 415.2 L68.6 418.2 L81.3 406.7 L88.4 414.5Z" fill-opacity="0.12" stroke-opacity="0.42" stroke-width="0.8"/><path d="M116.1 401.6 L115.2 406.6 L113.1 409.4 L111.6 409.0 L109.2 412.4 L105.3 419.2 L103.7 425.3 L93.3 420.0 L91.0 424.5 L88.8 423.2 L84.3 417.7 L90.8 412.3 L98.7 409.9 L101.8 404.2 L100.0 405.8 L98.8 404.3 L110.6 393.4 L115.0 393.4 L115.0 395.0 L115.9 395.2Z" fill-opacity="0.12" stroke-opacity="0.42" stroke-width="0.8"/><path d="M99.7 389.8 L68.6 418.2 L58.5 415.2 L55.1 415.1 L58.8 408.9 L61.0 408.8 L63.9 410.7 L65.7 410.7 L67.3 405.4 L69.4 403.6 L69.7 401.3 L69.0 399.4 L62.4 399.9 L61.1 399.1 L60.7 397.8 L62.7 394.5 L61.4 391.7 L51.8 390.7 L51.0 389.4 L51.6 389.0 L61.6 384.3 L75.1 380.2 L81.0 380.4 L85.1 385.1Z" fill-opacity="0.18" stroke-opacity="0.42" stroke-width="0.8"/><path d="M83.2 366.8 L81.0 380.4 L75.1 380.2 L61.6 384.3 L51.0 389.4 L48.8 385.1 L46.5 382.7 L44.1 377.5 L44.7 374.6 L44.0 371.9 L47.7 365.0 L48.1 362.7 L45.1 357.9 L48.9 355.1 L50.0 350.1 L84.9 356.1Z" fill-opacity="0.18" stroke-opacity="0.42" stroke-width="0.8"/><path d="M84.9 356.1 L103.1 359.0 L101.3 369.8 L83.2 366.8Z" fill-opacity="0.07" stroke-opacity="0.42" stroke-width="0.8"/><path d="M82.4 372.0 L100.5 374.9 L100.0 378.3 L105.6 384.4 L99.7 389.8 L85.1 385.1 L81.0 380.4Z" fill-opacity="0.07" stroke-opacity="0.42" stroke-width="0.8"/><path d="M101.3 369.8 L100.5 374.9 L82.4 372.0 L83.2 366.8Z" fill-opacity="0.03" stroke-opacity="0.42" stroke-width="0.8"/><path d="M109.8 385.1 L108.8 376.9 L116.9 376.2 L117.0 378.1 L115.1 379.0Z" fill-opacity="0.03" stroke-opacity="0.42" stroke-width="0.8"/><path d="M116.7 361.2 L114.2 376.3 L108.8 376.9 L109.8 385.1 L107.5 382.6 L105.6 384.4 L100.0 378.3 L103.1 359.0Z" fill-opacity="0.42" stroke-opacity="0.95" stroke-width="1.5"/><path d="M107.5 382.6 L117.0 390.2 L115.0 393.4 L110.6 393.4 L98.8 404.3 L100.0 405.8 L101.8 404.2 L98.7 409.9 L90.8 412.3 L88.4 414.5 L81.3 406.7Z" fill-opacity="0.12" stroke-opacity="0.42" stroke-width="0.8"/><path d="M149.3 349.3 L153.6 355.8 L154.7 359.6 L153.6 367.1 L148.5 377.4 L140.3 384.2 L136.0 389.7 L132.6 391.6 L122.5 388.6 L118.4 389.2 L117.0 390.2 L110.4 384.5 L115.1 379.0 L117.0 378.1 L116.9 376.2 L114.2 376.3 L114.1 374.0 L116.7 361.2 L120.0 361.7 L120.3 360.3 L121.5 360.4 L121.7 357.5 L129.4 356.6 L136.6 361.4 L137.1 358.5 L142.1 358.3 L142.5 350.8Z" fill-opacity="0.18" stroke-opacity="0.42" stroke-width="0.8"/><path d="M142.1 358.3 L137.1 358.5 L136.6 361.4 L124.7 353.5 L142.6 350.8Z" fill-opacity="0.03" stroke-opacity="0.42" stroke-width="0.8"/><path d="M122.8 352.1 L129.4 356.6 L121.7 357.5 L121.5 360.4 L120.3 360.3 L120.0 361.7 L101.6 358.7 L103.1 350.9 L109.1 351.5 L120.1 350.2Z" fill-opacity="0.07" stroke-opacity="0.42" stroke-width="0.8"/><path d="M124.1 326.8 L125.0 331.9 L117.2 332.9 L113.7 332.1 L107.9 329.1 L104.2 329.6 L102.4 320.6 L117.3 327.7Z" fill-opacity="0.03" stroke-opacity="0.42" stroke-width="0.8"/><path d="M117.2 332.9 L119.6 349.8 L105.7 338.5 L104.2 329.6 L107.9 329.1 L113.7 332.1Z" fill-opacity="0.03" stroke-opacity="0.42" stroke-width="0.8"/><path d="M120.1 350.2 L109.1 351.5 L106.9 351.0 L105.7 338.5Z" fill-opacity="0.03" stroke-opacity="0.42" stroke-width="0.8"/><path d="M102.4 320.6 L104.2 329.6 L95.9 330.8 L82.0 321.6 L86.2 312.8Z" fill-opacity="0.07" stroke-opacity="0.42" stroke-width="0.8"/><path d="M104.2 329.6 L106.9 351.0 L103.1 350.9 L101.6 358.7 L94.0 357.5 L92.4 348.4 L85.4 346.2 L83.5 333.1 L94.7 330.0 L95.9 330.8Z" fill-opacity="0.12" stroke-opacity="0.42" stroke-width="0.8"/><path d="M94.0 357.5 L84.9 356.1 L85.9 349.8 L85.4 346.2 L92.4 348.4Z" fill-opacity="0.03" stroke-opacity="0.42" stroke-width="0.8"/><path d="M149.3 349.3 L124.7 353.5 L119.6 349.8 L117.2 332.9 L125.0 331.9 L124.1 326.8 L133.5 325.4 L137.5 335.9 L146.1 343.8Z" fill-opacity="0.12" stroke-opacity="0.42" stroke-width="0.8"/><path d="M83.5 333.1 L85.9 349.8 L84.9 356.1 L51.4 350.6 L51.9 347.5 L50.3 347.2 L51.8 338.1 L50.3 337.9 L51.2 331.9 L50.2 325.8 L53.3 325.3 L54.4 332.4 L59.1 333.4 L63.2 336.2Z" fill-opacity="0.18" stroke-opacity="0.42" stroke-width="0.8"/><path d="M82.0 321.6 L94.7 330.0 L83.5 333.1 L63.2 336.2 L59.1 333.4 L54.4 332.4 L53.3 325.3Z" fill-opacity="0.12" stroke-opacity="0.42" stroke-width="0.8"/><path d="M81.4 321.2 L50.2 325.8 L51.2 331.9 L50.3 337.9 L51.8 338.1 L50.3 347.2 L51.9 347.5 L51.4 350.6 L50.0 350.1 L50.4 349.2 L49.4 347.8 L46.2 345.9 L44.8 346.3 L44.0 345.3 L40.1 345.2 L36.1 348.6 L34.4 348.8 L32.9 344.9 L30.4 343.4 L22.8 345.5 L21.8 344.1 L15.9 341.2 L14.9 338.7 L7.7 337.3 L7.1 335.5 L6.0 335.2 L5.8 333.5 L4.2 333.7 L2.6 331.5 L1.8 328.2 L0.1 326.1 L25.5 310.7 L37.1 301.4 L79.6 275.4 L81.6 278.7 L81.7 281.1 L82.4 281.2 L83.3 284.3 L67.7 293.9 L63.7 295.4 L62.0 297.4 L51.5 303.9 L53.0 307.5 L73.4 316.5Z" fill-opacity="0.26" stroke-opacity="0.42" stroke-width="0.8"/><path d="M121.5 267.8 L116.7 275.2 L114.5 274.2 L111.4 279.9 L107.3 279.1 L107.8 280.3 L99.6 283.4 L95.5 287.6 L91.3 268.1 L110.8 256.3 L116.3 258.7 L117.1 259.9 L111.3 263.2Z" fill-opacity="0.12" stroke-opacity="0.42" stroke-width="0.8"/><path d="M201.3 360.9 L197.8 362.1 L193.7 362.0 L180.6 359.8 L182.2 351.7 L202.4 353.4Z" fill-opacity="0.42" stroke-opacity="0.95" stroke-width="1.5"/><path d="M198.1 335.0 L195.8 353.0 L182.2 351.7 L185.3 333.1Z" fill-opacity="0.07" stroke-opacity="0.42" stroke-width="0.8"/><path d="M199.0 335.0 L204.9 335.2 L202.4 353.4 L195.8 353.0 L198.1 335.0Z" fill-opacity="0.03" stroke-opacity="0.42" stroke-width="0.8"/><path d="M179.9 289.0 L168.5 296.9 L166.4 296.7 L163.4 298.7 L142.5 316.8 L139.5 318.3 L143.9 290.4 L141.6 282.9 L138.3 282.2 L137.0 280.0 L137.2 276.7 L142.7 275.5 L141.8 279.8 L184.6 286.7Z" fill-opacity="0.18" stroke-opacity="0.42" stroke-width="0.8"/><path d="M135.4 276.6 L137.2 276.7 L136.9 279.5 L138.3 282.2 L141.6 282.9 L143.9 290.4 L138.8 321.7 L141.2 322.8 L143.6 329.0 L145.4 329.2 L145.3 331.2 L159.4 347.5 L148.2 347.5 L146.1 343.8 L137.5 335.9 L132.2 323.5 L119.9 315.0 L116.1 309.6 L116.8 304.3 L121.3 300.8 L132.2 285.4Z" fill-opacity="0.18" stroke-opacity="0.42" stroke-width="0.8"/><path d="M95.5 287.6 L92.3 295.4 L84.8 301.0 L83.7 302.8 L81.9 310.6 L84.5 312.9 L86.1 313.0 L82.0 321.6 L73.4 316.5 L53.0 307.5 L51.5 303.9 L62.0 297.4 L63.7 295.4 L67.7 293.9 L83.3 284.3 L82.4 281.2 L81.7 281.1 L81.6 278.7 L79.6 275.4 L91.3 268.1Z" fill-opacity="0.18" stroke-opacity="0.42" stroke-width="0.8"/><path d="M136.0 268.6 L135.4 276.6 L132.2 285.4 L121.3 300.8 L116.8 304.3 L116.1 309.6 L119.9 315.0 L131.5 322.8 L133.5 325.4 L117.3 327.7 L87.5 313.4 L84.5 312.9 L81.9 310.6 L83.7 302.8 L84.8 301.0 L92.3 295.4 L94.6 289.6 L98.2 284.4 L107.8 280.3 L107.3 279.1 L111.4 279.9 L114.5 274.2 L116.7 275.2 L121.5 267.8 L111.3 263.2 L117.1 259.9 L116.3 258.7 L110.8 256.3 L111.9 255.6 L111.9 253.8 L112.9 252.7 L117.9 255.8 L133.8 262.7Z" fill-opacity="0.26" stroke-opacity="0.42" stroke-width="0.8"/><path d="M449.9 77.4 L442.8 84.5 L426.7 66.1 L433.8 59.7Z" fill-opacity="0.07" stroke-opacity="0.42" stroke-width="0.8"/><path d="M201.4 458.8 L197.9 485.0 L181.4 482.3 L167.9 481.5 L167.5 482.6 L160.7 481.3 L167.1 442.5 L203.0 448.6Z" fill-opacity="0.26" stroke-opacity="0.42" stroke-width="0.8"/><path d="M163.7 481.8 L167.5 482.6 L167.9 481.5 L181.4 482.3 L213.0 487.5 L221.8 490.4 L217.2 498.2 L214.8 499.6 L209.2 506.0 L203.7 508.2 L179.9 510.7 L147.6 512.2 L139.1 514.8 L132.3 519.5 L129.5 492.4 L127.4 490.6 L135.4 483.8 L143.4 481.1 L161.3 478.0 L160.7 481.3Z" fill-opacity="0.26" stroke-opacity="0.42" stroke-width="0.8"/><path d="M245.2 306.5 L234.0 313.2 L229.6 318.8 L225.3 315.7 L227.3 303.4 L237.2 296.3Z" fill-opacity="0.07" stroke-opacity="0.42" stroke-width="0.8"/><path d="M95.9 421.4 L81.5 449.0 L76.5 453.9 L71.4 447.8 L67.6 448.5 L65.4 446.1 L62.3 448.9 L56.7 449.9 L54.3 445.1 L84.3 417.7 L88.8 423.2 L91.0 424.5 L93.3 420.0Z" fill-opacity="0.18" stroke-opacity="0.42" stroke-width="0.8"/><path d="M143.0 431.3 L159.3 427.5 L158.8 430.6 L168.8 432.2 L165.5 451.3 L138.2 446.9 L140.0 432.2Z" fill-opacity="0.12" stroke-opacity="0.42" stroke-width="0.8"/><path d="M60.2 500.6 L55.5 511.9 L53.5 514.8 L43.8 521.3 L34.8 523.5 L27.2 522.9 L25.8 519.5 L26.0 516.6 L23.6 513.8 L24.3 511.7 L27.6 511.3 L28.2 510.4 L24.4 507.4 L24.1 506.5 L26.9 504.1 L24.1 503.5 L23.3 500.9 L24.6 499.2 L27.6 498.9 L28.4 492.4 L32.7 491.0 L36.1 486.5 L35.1 484.3 L38.6 478.7 L37.8 476.8 L44.5 467.2 L48.1 469.8 L58.2 455.4 L61.8 467.6 L65.3 466.4 L68.4 463.9 L76.5 453.9 L85.0 471.1 L83.3 478.7 L75.5 489.6 L64.5 495.6Z" fill-opacity="0.26" stroke-opacity="0.42" stroke-width="0.8"/><path d="M148.0 449.0 L165.5 451.3 L161.3 478.0 L155.8 478.4 L138.3 482.4 L134.2 478.9 L133.1 474.3 L138.2 446.9Z" fill-opacity="0.18" stroke-opacity="0.42" stroke-width="0.8"/><path d="M204.9 415.9 L202.6 432.9 L194.3 431.4 L198.4 407.4 L206.2 409.1Z" fill-opacity="0.03" stroke-opacity="0.42" stroke-width="0.8"/><path d="M169.2 429.8 L168.8 432.2 L158.8 430.6 L161.7 413.4 L171.7 415.1Z" fill-opacity="0.03" stroke-opacity="0.42" stroke-width="0.8"/><path d="M159.3 427.5 L143.0 431.3 L145.7 415.7 L160.9 418.3Z" fill-opacity="0.03" stroke-opacity="0.42" stroke-width="0.8"/><path d="M189.1 418.1 L187.9 425.5 L183.1 424.6 L182.3 429.4 L169.6 427.3 L171.7 415.1Z" fill-opacity="0.03" stroke-opacity="0.42" stroke-width="0.8"/><path d="M127.4 209.2 L134.2 205.9 L133.6 205.2 L136.8 201.3 L140.8 206.0 L141.9 211.2 L141.4 216.4 L138.1 218.0 L136.7 220.9 L127.2 221.0 L125.6 217.2 L125.8 213.7 L123.5 211.3 L124.5 210.1Z" fill-opacity="0.07" stroke-opacity="0.42" stroke-width="0.8"/></g></svg>